<svg width="120" height="31" viewBox="0 0 120 31" fill="none" xmlns="http://www.w3.org/2000/svg">
<path d="M16.032 4.2H18.024V20.472H16.032V4.2ZM17.4 11.304H21.24V12.984H17.4V11.304ZM1.248 6.816H14.064V8.424H1.248V6.816ZM7.656 9.624C10.728 9.624 12.84 11.232 12.84 13.68C12.84 16.104 10.728 17.712 7.656 17.712C4.56 17.712 2.448 16.104 2.448 13.68C2.448 11.232 4.56 9.624 7.656 9.624ZM7.656 11.184C5.688 11.184 4.344 12.168 4.344 13.68C4.344 15.168 5.688 16.152 7.656 16.152C9.6 16.152 10.944 15.168 10.944 13.68C10.944 12.168 9.6 11.184 7.656 11.184ZM6.648 4.176H8.64V7.656H6.648V4.176ZM4.512 23.76H19.008V25.392H4.512V23.76ZM4.512 19.176H6.504V24.456H4.512V19.176ZM36.8621 14.376H38.8541V17.712H36.8621V14.376ZM28.0541 13.224H47.6621V14.832H28.0541V13.224ZM30.4301 16.968H45.1661V21.96H32.4461V24.504H30.4781V20.52H43.1981V18.48H30.4301V16.968ZM30.4781 24.096H45.8141V25.632H30.4781V24.096ZM36.7181 5.52H38.4701V6.192C38.4701 9.528 34.3901 11.712 29.7581 12.168L29.1101 10.632C33.1181 10.296 36.7181 8.52 36.7181 6.192V5.52ZM37.2941 5.52H39.0221V6.192C39.0221 8.52 42.6221 10.296 46.6301 10.632L45.9821 12.168C41.3741 11.712 37.2941 9.528 37.2941 6.192V5.52ZM29.8541 4.896H45.9101V6.504H29.8541V4.896ZM61.0282 4.968C64.2682 4.968 66.6442 6.936 66.6442 9.792C66.6442 12.624 64.2682 14.592 61.0282 14.592C57.8122 14.592 55.4362 12.624 55.4362 9.792C55.4362 6.936 57.8122 4.968 61.0282 4.968ZM61.0282 6.6C58.9402 6.6 57.3562 7.92 57.3562 9.792C57.3562 11.664 58.9402 12.96 61.0282 12.96C63.1402 12.96 64.7002 11.664 64.7002 9.792C64.7002 7.92 63.1402 6.6 61.0282 6.6ZM70.7242 4.176H72.7402V15.288H70.7242V4.176ZM58.7002 16.344H72.7402V21.624H60.6922V24.888H58.7482V20.136H70.7722V17.952H58.7002V16.344ZM58.7482 24H73.4602V25.584H58.7482V24ZM97.6264 4.176H99.6184V25.872H97.6264V4.176ZM91.2664 6.504H93.2344C93.2344 12.792 90.4024 18.288 83.1544 21.84L82.0984 20.232C88.3624 17.208 91.2664 12.6 91.2664 6.84V6.504ZM83.0824 6.504H92.1304V8.136H83.0824V6.504Z" fill="current"/>
<g clip-path="url(#clip0_4_16)">
<path d="M118.066 11.6317L107.571 22.1416L103.299 22.7009L103.858 18.4286L114.368 7.9342C114.61 7.68853 114.897 7.49333 115.215 7.35997C115.532 7.2266 115.873 7.15775 116.217 7.15741C116.562 7.15741 116.903 7.22538 117.221 7.35742C117.539 7.48946 117.828 7.68297 118.071 7.92688C118.314 8.17079 118.507 8.46028 118.638 8.77878C118.769 9.09728 118.836 9.43852 118.835 9.78295C118.836 10.1267 118.768 10.4671 118.636 10.7845C118.504 11.1019 118.31 11.3898 118.066 11.6317Z"  stroke-width="1.8125" stroke-miterlimit="10"/>
<path d="M112.916 9.38678L116.613 13.0843"  stroke-width="1.8125" stroke-miterlimit="10"/>
<path d="M107.571 22.1338L103.299 22.7009L103.858 18.4286C104.742 18.663 105.547 19.1297 106.189 19.7802C106.854 20.4251 107.332 21.2386 107.571 22.1338Z" stroke-width="1.8125" stroke-miterlimit="10"/>
<path d="M114.764 11.2355L106.22 19.7802"  stroke-width="1.8125" stroke="current" stroke-miterlimit="10"/>
</g>
<defs>
<clipPath id="clip0_4_16">
<rect width="18" height="18" fill="white" transform="translate(102 6)"/>
</clipPath>
</defs>
</svg>
